<svg width="46" height="46" viewBox="0 0 46 46" fill="none" xmlns="http://www.w3.org/2000/svg">
<path d="M38.8125 20.727C37.9063 20.3291 36.9272 20.1241 35.9375 20.125H10.0625C9.07288 20.124 8.09385 20.3287 7.1875 20.7261C5.90651 21.2862 4.81647 22.2075 4.0506 23.3772C3.28473 24.5469 2.87622 25.9144 2.875 27.3125V37.375C2.875 37.7562 3.02645 38.1219 3.29603 38.3915C3.56562 38.6611 3.93125 38.8125 4.3125 38.8125C4.69375 38.8125 5.05938 38.6611 5.32897 38.3915C5.59855 38.1219 5.75 37.7562 5.75 37.375V36.6562C5.75233 36.4663 5.8288 36.2849 5.96309 36.1506C6.09738 36.0163 6.27885 35.9398 6.46875 35.9375H39.5312C39.7212 35.9398 39.9026 36.0163 40.0369 36.1506C40.1712 36.2849 40.2477 36.4663 40.25 36.6562V37.375C40.25 37.7562 40.4014 38.1219 40.671 38.3915C40.9406 38.6611 41.3063 38.8125 41.6875 38.8125C42.0687 38.8125 42.4344 38.6611 42.704 38.3915C42.9736 38.1219 43.125 37.7562 43.125 37.375V27.3125C43.1236 25.9145 42.715 24.5472 41.9492 23.3777C41.1833 22.2082 40.0933 21.2871 38.8125 20.727V20.727ZM33.7812 7.1875H12.2188C10.8844 7.1875 9.60466 7.71758 8.66112 8.66112C7.71758 9.60466 7.1875 10.8844 7.1875 12.2188V18.6875C7.18754 18.7432 7.20052 18.7981 7.22542 18.8479C7.25032 18.8977 7.28646 18.9411 7.33098 18.9745C7.3755 19.008 7.42719 19.0306 7.48196 19.0407C7.53674 19.0508 7.5931 19.048 7.6466 19.0325C8.43135 18.803 9.24488 18.6868 10.0625 18.6875H10.4425C10.5312 18.6881 10.617 18.6558 10.6834 18.5969C10.7497 18.538 10.7919 18.4567 10.8019 18.3686C10.8803 17.6661 11.2147 17.0172 11.7412 16.5457C12.2677 16.0742 12.9495 15.8132 13.6562 15.8125H18.6875C19.3947 15.8126 20.0771 16.0733 20.6042 16.5448C21.1313 17.0164 21.4661 17.6657 21.5445 18.3686C21.5545 18.4567 21.5967 18.538 21.6631 18.5969C21.7294 18.6558 21.8152 18.6881 21.9039 18.6875H24.1015C24.1902 18.6881 24.276 18.6558 24.3423 18.5969C24.4087 18.538 24.4509 18.4567 24.4609 18.3686C24.5392 17.6666 24.8732 17.0181 25.3992 16.5466C25.9251 16.0752 26.6062 15.8139 27.3125 15.8125H32.3438C33.051 15.8126 33.7334 16.0733 34.2605 16.5448C34.7875 17.0164 35.1223 17.6657 35.2008 18.3686C35.2108 18.4567 35.253 18.538 35.3193 18.5969C35.3857 18.6558 35.4715 18.6881 35.5602 18.6875H35.9375C36.7552 18.6871 37.5687 18.8036 38.3534 19.0334C38.407 19.0489 38.4634 19.0517 38.5183 19.0416C38.5731 19.0315 38.6248 19.0087 38.6694 18.9752C38.7139 18.9416 38.75 18.8981 38.7749 18.8482C38.7997 18.7983 38.8126 18.7433 38.8125 18.6875V12.2188C38.8125 10.8844 38.2824 9.60466 37.3389 8.66112C36.3953 7.71758 35.1156 7.1875 33.7812 7.1875Z" fill="#F8F8F8"/>
</svg>
