<svg width="34" height="34" viewBox="0 0 34 34" fill="none" xmlns="http://www.w3.org/2000/svg">
<path fill-rule="evenodd" clip-rule="evenodd" d="M32.8424 5.86765C33.2159 5.17225 32.3691 5.38315 32.3691 5.38315C32.3691 5.38315 26.7235 10.8024 25.9388 10.1384C25.1542 9.47431 31.4665 4.28028 30.7195 3.30968C30.0284 2.40496 24.4827 8.8639 23.8165 8.075C23.1567 7.28768 28.5653 1.63465 28.5653 1.63465C28.5653 1.63465 28.7709 0.78359 28.0808 1.15653C19.5771 5.72953 18.4939 9.99281 18.4939 9.99281C18.4939 9.99281 18.2012 10.8232 18.8365 11.4649C18.8987 11.5207 3.32191 27.0093 1.23675 29.1003C0.222063 30.1139 3.94506 33.7758 4.95338 32.7622C7.03906 30.6712 22.4974 15.07 22.5532 15.1279C23.1944 15.768 24.0226 15.4742 24.0226 15.4742C24.0226 15.4742 28.279 14.3878 32.8424 5.86765Z" fill="#F8F8F8"/>
<path fill-rule="evenodd" clip-rule="evenodd" d="M17.0149 21.5193C21.1602 25.6737 28.1488 32.675 28.1488 32.675C28.1488 32.675 31.1993 31.6768 31.629 29.1003L20.5392 17.9886C19.3633 19.1644 18.1886 20.3413 17.0149 21.5193ZM11.56 17.9185C13.0469 16.4327 14.5321 14.9452 16.0156 13.456L3.9626 1.38016C3.9626 1.38016 3.74478 1.15172 3.26506 1.63357C2.31253 2.58291 0.469626 8.63172 8.28272 16.4565C9.52106 17.6975 10.5984 17.8696 11.56 17.9185Z" fill="#F8F8F8"/>
</svg>
