<svg width="60" height="60" viewBox="0 0 60 60" fill="none" xmlns="http://www.w3.org/2000/svg">
<path d="M3.88282 59.975C0.582816 59.975 -0.917184 57.575 0.582816 54.675L27.2828 2.175C28.7828 -0.725 31.1828 -0.725 32.6828 2.175L59.3828 54.675C60.8828 57.575 59.3828 59.975 56.0828 59.975H3.88282Z" fill="#FFCE31"/>
<path d="M25.7828 21.5749L28.5828 40.0749C28.8828 41.8749 31.1828 41.8749 31.4828 40.0749L34.1828 21.5749C34.6828 14.3749 25.2828 14.3749 25.7828 21.5749" fill="#231F20"/>
<path d="M29.9828 51.7749C32.3024 51.7749 34.1828 49.8945 34.1828 47.5749C34.1828 45.2553 32.3024 43.3749 29.9828 43.3749C27.6632 43.3749 25.7828 45.2553 25.7828 47.5749C25.7828 49.8945 27.6632 51.7749 29.9828 51.7749Z" fill="#231F20"/>
</svg>
