<svg width="47" height="47" viewBox="0 0 47 47" fill="none" xmlns="http://www.w3.org/2000/svg">
<g clip-path="url(#clip0_65_2638)">
<path d="M17.0449 19.7694C17.3314 20.0557 17.5587 20.3958 17.7138 20.77C17.8688 21.1442 17.9487 21.5454 17.9487 21.9505C17.9487 22.3556 17.8688 22.7567 17.7138 23.1309C17.5587 23.5052 17.3314 23.8452 17.0449 24.1316C16.7585 24.4181 16.4186 24.6453 16.0444 24.8004C15.6702 24.9555 15.2692 25.0353 14.8641 25.0353C14.4591 25.0353 14.058 24.9555 13.6838 24.8004C13.3097 24.6453 12.9697 24.4181 12.6834 24.1316L0.971585 12.4205C0.684726 12.1344 0.457133 11.7945 0.301843 11.4203C0.146554 11.0461 0.0666199 10.6449 0.0666199 10.2397C0.0666199 9.8346 0.146554 9.43343 0.301843 9.05923C0.457133 8.68502 0.684726 8.34513 0.971585 8.05902C1.55016 7.48133 2.33434 7.15686 3.15194 7.15686C3.96955 7.15686 4.75373 7.48133 5.3323 8.05902L17.0449 19.7694Z" fill="#BCBDBF"/>
<path d="M0.678576 8.41449C0.239115 9.00638 0.0268138 9.7364 0.0803233 10.4716C0.133833 11.2069 0.449594 11.8985 0.970123 12.4205L12.6812 24.1316C13.7747 25.2265 15.4799 25.3154 16.6872 24.4217L0.678576 8.41449Z" fill="#A7A8AC"/>
<path d="M11.7067 0.791683C11.4204 0.505197 11.0805 0.277929 10.7064 0.12287C10.3323 -0.0321891 9.93128 -0.112 9.5263 -0.112C9.12132 -0.112 8.72031 -0.0321891 8.34619 0.12287C7.97207 0.277929 7.63218 0.505197 7.34594 0.791683C7.05906 1.07755 6.83144 1.41724 6.67612 1.79127C6.52081 2.1653 6.44086 2.56631 6.44086 2.97131C6.44086 3.3763 6.52081 3.77731 6.67612 4.15134C6.83144 4.52537 7.05906 4.86506 7.34594 5.15093L19.057 16.8657C19.6356 17.4434 20.4198 17.7678 21.2374 17.7678C22.055 17.7678 22.8392 17.4434 23.4177 16.8657C23.7046 16.5796 23.9322 16.2397 24.0875 15.8655C24.2428 15.4913 24.3227 15.0901 24.3227 14.685C24.3227 14.2798 24.2428 13.8786 24.0875 13.5044C23.9322 13.1302 23.7046 12.7903 23.4177 12.5042L11.7067 0.791683Z" fill="#BCBDBF"/>
<path d="M23.0638 17.1513C21.8557 18.0458 20.1512 17.9555 19.0578 16.8649L7.34668 5.15091C6.82547 4.62928 6.50924 3.9376 6.45571 3.20214C6.40219 2.46668 6.61494 1.7365 7.05514 1.1449L23.0638 17.1513Z" fill="#A7A8AC"/>
<path d="M27.4216 9.9089C25.04 7.52732 21.1155 11.1404 16.464 15.7912C11.811 20.4479 8.20076 24.3709 10.5816 26.7518C12.4021 28.5752 18.5048 30.2364 23.3458 28.8073C26.7937 32.2574 30.243 35.706 33.6931 39.1546C35.9242 41.3842 38.1567 43.6182 40.3862 45.8492C40.5302 45.9917 40.6903 46.0673 40.7402 46.0181C42.0033 44.7565 43.2613 43.4955 44.523 42.2331C45.2404 41.5142 45.9638 40.7901 46.6842 40.0711C46.7342 40.0241 46.6592 39.8648 46.5153 39.7201C43.0087 36.2105 39.5006 32.7002 35.9895 29.1943C33.818 27.0198 31.6464 24.8483 29.4749 22.6767C30.9025 17.8343 29.245 11.7346 27.4186 9.90963" fill="#243438"/>
<path d="M23.3494 28.8022C23.3494 28.8022 25.2236 27.6117 26.0571 26.9001L23.8319 24.675C20.5478 26.2634 17.0683 27.3481 13.514 25.9712C12.0019 25.3814 10.8269 24.44 10.2614 23.2782C9.65042 24.6383 9.65335 25.8118 10.5875 26.7467C12.4102 28.5679 18.5114 30.2305 23.3509 28.8014L23.3494 28.8022ZM24.3225 29.7767L40.3928 45.8485C40.5353 45.9895 40.6983 46.0666 40.7468 46.0174L42.9573 43.7996L26.8972 27.7388C26.0841 28.4721 25.224 29.1516 24.3225 29.773" fill="#34484C"/>
<path d="M27.1939 9.24944C28.6964 10.752 26.0483 15.8405 21.2822 20.6065C16.5132 25.3792 11.4276 28.0237 9.92362 26.5183C8.42109 25.0128 11.0678 19.9302 15.8353 15.1597C20.6044 10.3907 25.6899 7.7425 27.1954 9.24797" fill="#243438"/>
<path d="M26.3574 11.2859C27.5317 12.4543 25.2544 16.6314 21.2814 20.6066C17.3048 24.5818 13.1299 26.8546 11.9608 25.6782C10.7858 24.5076 13.0579 20.3341 17.0324 16.3546C21.0068 12.3809 25.1839 10.1109 26.3574 11.2859Z" fill="#34484C"/>
<path d="M22.6709 29.9125C24.9943 32.2374 27.3181 34.562 29.6423 36.8862C31.1257 38.3623 32.5945 39.8383 34.0779 41.3218C34.1719 41.418 34.3071 41.4378 34.3724 41.3717L39.3904 36.3552C40.3466 35.3976 41.3049 34.4429 42.2589 33.4853C42.3264 33.4177 42.3044 33.2848 42.2089 33.1908C39.8861 30.8658 37.5625 28.5422 35.236 26.2208C33.76 24.7374 32.2839 23.2613 30.8004 21.7852C30.7606 21.7423 30.709 21.7121 30.6521 21.6986H30.644C30.6403 21.6956 30.6403 21.6971 30.6345 21.6986C30.5889 21.6905 30.5419 21.6971 30.5052 21.7345L25.4887 26.7496L22.6187 29.621C22.5534 29.6863 22.5754 29.8222 22.6694 29.9162" fill="#243438"/>
<path d="M22.6709 29.9126C24.9943 32.2375 27.3181 34.562 29.6423 36.8862C31.1257 38.3623 32.5945 39.8384 34.0779 41.3218C34.1719 41.418 34.307 41.4379 34.3724 41.3718C36.0453 39.7003 27.1608 25.076 25.4938 26.7482L22.6239 29.6196C22.5585 29.6849 22.5805 29.8208 22.6745 29.9148" fill="#34484C"/>
</g>
<defs>
<clipPath id="clip0_65_2638">
<rect width="47" height="47" fill="white"/>
</clipPath>
</defs>
</svg>
