<svg width="38" height="30" viewBox="0 0 38 30" fill="none" xmlns="http://www.w3.org/2000/svg">
<g clip-path="url(#clip0_65_2616)">
<path d="M35.15 0H2.85C2.09413 0 1.36922 0.296316 0.834746 0.823762C0.300267 1.35121 0 2.06658 0 2.8125L0 21.5625C0 22.3084 0.300267 23.0238 0.834746 23.5512C1.36922 24.0787 2.09413 24.375 2.85 24.375H17.1V26.25H6.65C6.39804 26.25 6.15641 26.3488 5.97825 26.5246C5.80009 26.7004 5.7 26.9389 5.7 27.1875V29.0625C5.7 29.3111 5.80009 29.5496 5.97825 29.7254C6.15641 29.9012 6.39804 30 6.65 30H31.35C31.602 30 31.8436 29.9012 32.0218 29.7254C32.1999 29.5496 32.3 29.3111 32.3 29.0625V27.1875C32.3 26.9389 32.1999 26.7004 32.0218 26.5246C31.8436 26.3488 31.602 26.25 31.35 26.25H20.9V24.375H35.15C35.9059 24.375 36.6308 24.0787 37.1653 23.5512C37.6997 23.0238 38 22.3084 38 21.5625V2.8125C38 2.06658 37.6997 1.35121 37.1653 0.823762C36.6308 0.296316 35.9059 0 35.15 0V0ZM34.2 20.625H3.8V3.75H34.2V20.625Z" fill="#F8F8F8"/>
</g>
<defs>
<clipPath id="clip0_65_2616">
<rect width="38" height="30" fill="white"/>
</clipPath>
</defs>
</svg>
